STARTFONT 2.1
FONT -FontForge-Fredoka One-Book-R-Normal--46-440-75-75-P-257-ISO10646-1
SIZE 44 75 75
FONTBOUNDINGBOX 37 46 1 -10
COMMENT "Generated by fontforge, http://fontforge.sourceforge.net"
COMMENT "Copyright (c) 2011 Milena B Brandao (milenabbrandao@gmail.com), with Reserved Font Name "Fredoka""
STARTPROPERTIES 37
FOUNDRY "FontForge"
FAMILY_NAME "Fredoka One"
WEIGHT_NAME "Book"
SLANT "R"
SETWIDTH_NAME "Normal"
ADD_STYLE_NAME ""
PIXEL_SIZE 46
POINT_SIZE 440
RESOLUTION_X 75
RESOLUTION_Y 75
SPACING "P"
AVERAGE_WIDTH 257
CHARSET_REGISTRY "ISO10646"
CHARSET_ENCODING "1"
FONTNAME_REGISTRY ""
CHARSET_COLLECTIONS "ISO10646-1"
FONT_NAME "FredokaOne-Regular"
FACE_NAME "Fredoka One"
COPYRIGHT "Copyright (c) 2011 Milena B Brandao (milenabbrandao@gmail.com), with Reserved Font Name "Fredoka""
FONT_VERSION "1.001"
FONT_ASCENT 37
FONT_DESCENT 9
UNDERLINE_POSITION -5
UNDERLINE_THICKNESS 3
RAW_ASCENT 800
RAW_DESCENT 200
NORM_SPACE 12
RELATIVE_WEIGHT 40
RELATIVE_SETWIDTH 50
SUPERSCRIPT_X 0
SUPERSCRIPT_Y 21
SUPERSCRIPT_SIZE 29
SUBSCRIPT_X 0
SUBSCRIPT_Y 6
SUBSCRIPT_SIZE 29
AVG_LOWERCASE_WIDTH 335
AVG_UPPERCASE_WIDTH 320
ENDPROPERTIES
CHARS 31
STARTCHAR space
ENCODING 32
SWIDTH 253 0
DWIDTH 12 0
BBX 1 1 0 0
BITMAP
00
ENDCHAR
STARTCHAR percent
ENCODING 37
SWIDTH 838 0
DWIDTH 39 0
BBX 35 37 2 -1
BITMAP
0000006000
000000F800
07C000F000
1FF001F000
3FF801E000
7FFC03E000
7FFE03C000
FFFE07C000
F83E078000
F83E0F8000
F83E0F0000
F83E1F0000
F83E3E0000
FC7E3C0000
FFFE7C0000
7FFC780000
3FFCF80000
3FF8F00000
0FF1F00000
0001E0FC00
0003E3FF00
0003C7FF80
0007CFFFC0
00078FFFC0
000F8FCFC0
000F1F87E0
001F1F03E0
001E1F03E0
003E1F03E0
007C1F87E0
00780FDFC0
00F80FFFC0
00F00FFFC0
01F007FF80
01E003FF00
03E000FC00
01C0000000
ENDCHAR
STARTCHAR parenleft
ENCODING 40
SWIDTH 384 0
DWIDTH 18 0
BBX 16 46 1 -10
BITMAP
001E
007F
01FF
03FF
07FF
07FF
0FF0
0FE0
1FC0
1FC0
3F80
3F80
3F80
3F00
7F00
7F00
7F00
7F00
7E00
7E00
FE00
FE00
FE00
FE00
FE00
FE00
FE00
7E00
7E00
7F00
7F00
7F00
7F00
3F00
3F80
3F80
1F80
1FC0
1FC0
0FE0
0FF8
07FF
03FF
03FF
00FF
007F
ENDCHAR
STARTCHAR parenright
ENCODING 41
SWIDTH 384 0
DWIDTH 18 0
BBX 15 46 1 -10
BITMAP
7000
FE00
FF00
FF80
FFC0
FFE0
1FF0
07F0
07F0
03F8
03F8
01FC
01FC
01FC
00FC
00FE
00FE
00FE
00FE
00FE
00FE
00FE
00FE
00FE
00FE
00FE
00FE
00FE
00FE
00FE
00FE
00FE
00FC
01FC
01FC
01F8
03F8
03F8
07F0
07F0
1FE0
FFE0
FFC0
FF80
FF00
FE00
ENDCHAR
STARTCHAR comma
ENCODING 44
SWIDTH 238 0
DWIDTH 11 0
BBX 9 16 1 -7
BITMAP
0800
7F00
FF80
FF80
FF80
FF80
FF80
7F80
3F00
1F00
1F00
3E00
7E00
FC00
F800
F000
ENDCHAR
STARTCHAR hyphen
ENCODING 45
SWIDTH 433 0
DWIDTH 20 0
BBX 18 8 1 6
BITMAP
1FFE00
7FFF80
FFFFC0
FFFFC0
FFFFC0
FFFFC0
7FFF80
1FFE00
ENDCHAR
STARTCHAR period
ENCODING 46
SWIDTH 237 0
DWIDTH 11 0
BBX 9 9 1 0
BITMAP
0800
7F00
FF80
FF80
FF80
FF80
FF80
7F00
7E00
ENDCHAR
STARTCHAR slash
ENCODING 47
SWIDTH 526 0
DWIDTH 24 0
BBX 23 39 1 -3
BITMAP
0000E0
0001F8
0001FC
0003FE
0003FC
0007FC
0007F8
0007F8
000FF8
000FF0
001FF0
001FE0
003FE0
003FC0
007FC0
007F80
00FF80
00FF00
01FF00
01FE00
03FE00
03FC00
07FC00
07F800
0FF800
0FF000
1FF000
1FE000
3FE000
3FC000
3FC000
7F8000
7F8000
FF0000
FF0000
FF0000
FE0000
7E0000
080000
ENDCHAR
STARTCHAR zero
ENCODING 48
SWIDTH 608 0
DWIDTH 28 0
BBX 26 35 1 -1
BITMAP
007F8000
01FFE000
07FFF800
0FFFFC00
1FFFFE00
1FFFFE00
3FFFFF00
3FFFFF00
7FE1FF00
7FC0FF80
7F807F80
7F807F80
FF807F80
FF807FC0
FF003FC0
FF003FC0
FF003FC0
FF003FC0
FF003FC0
FF003FC0
FF007FC0
FF807FC0
7F807F80
7F807F80
7FC0FF80
7FC1FF80
3FFFFF00
3FFFFF00
3FFFFE00
1FFFFE00
0FFFFC00
07FFF800
03FFF000
00FFC000
000C0000
ENDCHAR
STARTCHAR one
ENCODING 49
SWIDTH 407 0
DWIDTH 19 0
BBX 16 34 1 0
BITMAP
003C
007E
00FF
01FF
03FF
0FFF
1FFF
3FFF
7FFF
FFFF
FFFF
FFFF
FFFF
7FFF
3EFF
10FF
00FF
00FF
00FF
00FF
00FF
00FF
00FF
00FF
00FF
00FF
00FF
00FF
00FF
00FF
00FF
00FF
00FF
007E
ENDCHAR
STARTCHAR two
ENCODING 50
SWIDTH 609 0
DWIDTH 28 0
BBX 26 34 1 0
BITMAP
00FF8000
03FFE000
07FFF000
0FFFF800
1FFFFC00
3FFFFE00
7FFFFF00
7FFFFF00
7FC1FF00
FF80FF80
FF80FF80
FF007F80
FF007F80
FF00FF80
FF00FF80
7E01FF80
0003FF00
0007FF00
001FFE00
003FFE00
00FFFC00
01FFF800
07FFE000
0FFFC000
1FFF8000
3FFC0000
7FFFFF80
7FFFFFC0
FFFFFFC0
FFFFFFC0
FFFFFFC0
FFFFFFC0
7FFFFFC0
3FFFFF80
ENDCHAR
STARTCHAR three
ENCODING 51
SWIDTH 608 0
DWIDTH 28 0
BBX 26 35 1 -1
BITMAP
00FFC000
03FFF000
07FFF800
0FFFFC00
1FFFFE00
3FFFFF00
3FFFFF00
3FFFFF80
3FC0FF80
3FC07F80
1F807F80
0F00FF80
001FFF80
003FFF00
007FFF00
007FFC00
007FFC00
007FFE00
003FFF00
003FFF80
0001FF80
1E007FC0
7F007FC0
FF003FC0
FF807FC0
FF807FC0
7FF3FF80
7FFFFF80
7FFFFF80
3FFFFF00
1FFFFE00
0FFFFC00
07FFF800
01FFE000
000C0000
ENDCHAR
STARTCHAR four
ENCODING 52
SWIDTH 592 0
DWIDTH 27 0
BBX 24 34 1 0
BITMAP
07803C
0FE07F
0FF0FF
0FF0FF
1FF0FF
1FF0FF
1FE0FF
1FE0FF
3FE0FF
3FE0FF
3FC0FF
3FC0FF
7FC0FF
7FC0FF
7F80FF
7F80FF
FF80FF
FFFFFF
FFFFFF
FFFFFF
FFFFFF
FFFFFF
FFFFFF
7FFFFF
0000FF
0000FF
0000FF
0000FF
0000FF
0000FF
0000FF
0000FF
00007F
00003E
ENDCHAR
STARTCHAR five
ENCODING 53
SWIDTH 530 0
DWIDTH 24 0
BBX 22 35 1 -1
BITMAP
07FFF0
1FFFF8
1FFFF8
3FFFF8
3FFFFC
3FFFF8
3FFFF8
3FFFF8
7FC000
7FC000
7F8000
7F8000
7FFE00
7FFF80
7FFFC0
7FFFE0
FFFFF0
FFFFF8
FFFFF8
7FFFFC
3F87FC
0E03FC
0003FC
0003FC
1C03FC
7E07FC
7FFFFC
FFFFF8
FFFFF8
FFFFF0
7FFFF0
3FFFE0
1FFFC0
07FF00
007000
ENDCHAR
STARTCHAR six
ENCODING 54
SWIDTH 560 0
DWIDTH 26 0
BBX 24 35 1 -1
BITMAP
0000F0
000FFC
003FFE
00FFFE
01FFFE
03FFFE
07FFFC
0FFFFC
1FFF80
1FFC00
3FF000
3FE000
7FC000
7FC000
7FBF00
7FFFE0
FFFFF0
FFFFF8
FFFFFC
FFFFFC
FFFFFE
FFC3FE
FF81FF
FF80FF
FF80FF
7F81FE
7FC3FE
7FFFFE
3FFFFE
3FFFFC
1FFFF8
0FFFF0
07FFE0
01FF80
001800
ENDCHAR
STARTCHAR seven
ENCODING 55
SWIDTH 561 0
DWIDTH 26 0
BBX 24 34 1 0
BITMAP
3FFFF8
FFFFFF
FFFFFF
FFFFFF
FFFFFF
FFFFFF
FFFFFF
FFFFFF
0003FE
0003FE
0007FC
0007FC
000FF8
001FF8
001FF0
003FF0
007FE0
007FC0
00FFC0
01FF80
01FF00
01FF00
03FE00
03FE00
07FC00
07FC00
07F800
07F800
07F800
0FF800
0FF800
0FF800
07F000
07F000
ENDCHAR
STARTCHAR eight
ENCODING 56
SWIDTH 582 0
DWIDTH 27 0
BBX 25 35 1 -1
BITMAP
00FF8000
03FFE000
07FFF000
0FFFF800
1FFFFC00
3FFFFE00
3FFFFE00
7FF7FE00
7FC1FE00
7F81FF00
7F81FF00
7FC1FE00
3FF7FE00
3FFFFE00
1FFFFC00
1FFFF800
1FFFFC00
3FFFFC00
3FFFFE00
7FFFFF00
7FC1FF00
FF80FF00
FF00FF80
FF00FF80
FF80FF80
FF80FF00
7FC3FF00
7FFFFF00
7FFFFE00
3FFFFE00
1FFFFC00
0FFFF800
07FFF000
01FFC000
001C0000
ENDCHAR
STARTCHAR nine
ENCODING 57
SWIDTH 560 0
DWIDTH 26 0
BBX 24 34 1 0
BITMAP
01FF00
07FFC0
0FFFF0
1FFFF8
3FFFF8
7FFFFC
7FFFFC
7FC7FE
FF81FE
FF01FE
FF01FE
FF01FF
FF83FF
7FFFFF
7FFFFF
3FFFFF
3FFFFE
1FFFFE
07FFFE
01FFFE
0003FE
0003FC
0007FC
000FFC
001FF8
00FFF8
3FFFF0
7FFFE0
7FFFC0
7FFF80
7FFF00
7FFE00
7FF800
3FC000
ENDCHAR
STARTCHAR colon
ENCODING 58
SWIDTH 238 0
DWIDTH 11 0
BBX 9 23 1 0
BITMAP
7F00
FF00
FF80
FF80
FF80
FF80
FF00
7F00
0000
0000
0000
0000
0000
0000
0800
7F00
FF80
FF80
FF80
FF80
FF80
7F00
7E00
ENDCHAR
STARTCHAR less
ENCODING 60
SWIDTH 627 0
DWIDTH 29 0
BBX 27 32 1 0
BITMAP
00000100
00000780
00001FC0
00007FE0
0000FFE0
0003FFE0
000FFFC0
001FFF80
007FFF00
01FFFC00
03FFF000
0FFFC000
3FFF8000
7FFE0000
FFF80000
FFF00000
FFE00000
FFF80000
FFFE0000
3FFF0000
1FFFC000
07FFF000
01FFF800
00FFFE00
003FFF80
000FFFC0
0003FFE0
0001FFE0
00007FE0
00001FC0
00000FC0
00000380
ENDCHAR
STARTCHAR equal
ENCODING 61
SWIDTH 478 0
DWIDTH 22 0
BBX 20 17 1 2
BITMAP
3FFF80
7FFFE0
FFFFF0
FFFFF0
FFFFF0
FFFFF0
7FFFE0
000000
000000
000000
3FFFC0
FFFFE0
FFFFF0
FFFFF0
FFFFF0
FFFFF0
7FFFE0
ENDCHAR
STARTCHAR greater
ENCODING 62
SWIDTH 627 0
DWIDTH 29 0
BBX 27 32 1 0
BITMAP
10000000
7C000000
7F000000
FF800000
FFE00000
FFF80000
FFFC0000
3FFF0000
1FFFC000
07FFE000
01FFF800
00FFFE00
003FFF80
000FFFC0
0007FFE0
0001FFE0
0000FFE0
0003FFE0
000FFFC0
001FFF80
007FFE00
01FFFC00
07FFF000
0FFFC000
3FFF8000
7FFE0000
FFF80000
FFF00000
FFC00000
FF000000
7E000000
38000000
ENDCHAR
STARTCHAR L
ENCODING 76
SWIDTH 587 0
DWIDTH 27 0
BBX 24 34 2 0
BITMAP
380000
FE0000
FF0000
FF0000
FF0000
FF0000
FF0000
FF0000
FF0000
FF0000
FF0000
FF0000
FF0000
FF0000
FF0000
FF0000
FF0000
FF0000
FF0000
FF0000
FF0000
FF0000
FF0000
FF0000
FF0000
FF0000
FF0000
FFFFFE
FFFFFF
FFFFFF
FFFFFF
FFFFFF
FFFFFF
7FFFFE
ENDCHAR
STARTCHAR M
ENCODING 77
SWIDTH 870 0
DWIDTH 40 0
BBX 36 34 2 0
BITMAP
1800000180
FE00000FF0
FF00000FF0
FF80001FF0
FFC0003FF0
FFE0007FF0
FFE0007FF0
FFF000FFF0
FFF801FFF0
FFFC03FFF0
FFFC03FFF0
FFFE07FFF0
FFFF0FFFF0
FFFF9FFFF0
FFFF9FFFF0
FF7FFFEFF0
FF7FFFCFF0
FF3FFFCFF0
FF1FFF8FF0
FF0FFF0FF0
FF0FFF0FF0
FF07FE0FF0
FF03FC0FF0
FF01F80FF0
FF00F00FF0
FF00000FF0
FF00000FF0
FF00000FF0
FF00000FF0
FF00000FF0
FF00000FF0
FF00000FF0
FF00000FF0
7C000007E0
ENDCHAR
STARTCHAR P
ENCODING 80
SWIDTH 632 0
DWIDTH 29 0
BBX 26 34 2 0
BITMAP
3FFF0000
FFFFE000
FFFFF800
FFFFFC00
FFFFFE00
FFFFFF00
FFFFFF00
FFFFFF80
FF03FF80
FF007FC0
FF007FC0
FF003FC0
FF003FC0
FF003FC0
FF007FC0
FF007FC0
FF03FF80
FFFFFF80
FFFFFF00
FFFFFF00
FFFFFE00
FFFFFC00
FFFFF800
FFFFE000
FFFF0000
FF000000
FF000000
FF000000
FF000000
FF000000
FF000000
FF000000
FF000000
7E000000
ENDCHAR
STARTCHAR m
ENCODING 109
SWIDTH 851 0
DWIDTH 39 0
BBX 35 24 2 0
BITMAP
7E3F80FC00
FF7FC3FF00
FFFFE7FF80
FFFFFFFFC0
FFFFFFFFC0
FFFFFFFFC0
FFFFFFFFE0
FFFFFFFFE0
FF8FFE3FE0
FF07FC1FE0
FF07FC1FE0
FF03FC1FE0
FF03FC1FE0
FF03FC1FE0
FF03FC1FE0
FF03FC1FE0
FF03FC1FE0
FF03FC1FE0
FF03FC1FE0
FF03FC1FE0
FF03FC1FE0
FF03FC1FE0
FF03F80FE0
7E01F00FC0
ENDCHAR
STARTCHAR degree
ENCODING 176
SWIDTH 407 0
DWIDTH 19 0
BBX 17 16 1 19
BITMAP
07F000
1FFC00
3FFE00
7FFE00
7FFF00
FE3F00
FC1F00
F81F80
F81F80
FC1F00
FE3F00
7FFF00
7FFE00
3FFE00
1FF800
07F000
ENDCHAR
STARTCHAR mu
ENCODING 181
SWIDTH 601 0
DWIDTH 28 0
BBX 24 34 2 -10
BITMAP
7E007E
FF00FF
FF00FF
FF00FF
FF00FF
FF00FF
FF00FF
FF00FF
FF00FF
FF00FF
FF00FF
FF00FF
FF00FF
FF01FF
FF81FF
FFC7FF
FFFFFF
FFFFFF
FFFFFF
FFFFFF
FFFFFF
FFFEFF
FFFEFE
FF3838
FF0000
FF0000
FF0000
FF0000
FF0000
FF0000
FF0000
FF0000
FF0000
7E0000
ENDCHAR
STARTCHAR onequarter
ENCODING 188
SWIDTH 786 0
DWIDTH 36 0
BBX 31 37 2 -1
BITMAP
00000300
07C00780
0FC00780
1FC00F80
3FC00F00
7FC01F00
FFC01E00
FFC03E00
7FC03C00
37C07C00
07C0F800
07C0F800
07C1F000
07C1E000
07C3E000
07C3C000
07C7C000
07C78F3E
07CF9FBE
078F1F3E
001F1F3E
001E1F3E
003E3F3E
003C3F3E
007C3E3E
00783E3E
00F87FFE
01F07FFE
01F07FFE
03E07FFE
03C01FFE
07C0003E
0780003E
0F80003E
0F00003E
1F00001E
0E000000
ENDCHAR
STARTCHAR onehalf
ENCODING 189
SWIDTH 804 0
DWIDTH 37 0
BBX 32 37 2 -1
BITMAP
00000300
07C00780
0FC00780
1FC00F80
3FC00F00
7FC01F00
FFC01E00
FFC03E00
7FC03C00
37C07C00
07C0F800
07C0F800
07C1F000
07C1E000
07C3E000
07C3C000
07C7C080
07C787F0
07CF9FF8
078F3FFC
001F3FFE
001E7FFE
003E7E3E
003C7E3E
007C7C3E
00787C7E
00F800FE
01F003FC
01F007FC
03E01FF0
03C03FE0
07C07FFF
07807FFF
0F807FFF
0F007FFF
1F003FFF
0E000000
ENDCHAR
STARTCHAR threequarters
ENCODING 190
SWIDTH 842 0
DWIDTH 39 0
BBX 34 37 2 -1
BITMAP
000000E000
0FE000F000
1FF801F000
3FFC01E000
7FFC03E000
7FFE03C000
7C7E07C000
3C7E078000
00FC0F8000
03FC0F0000
03FC1F0000
03FC1E0000
30FE3E0000
F83E7C0000
FC3E780000
FEFEF80000
7FFEF00000
7FFDF3E7C0
3FF9E3E7C0
0FF3E3E7C0
0003C7E7C0
0007C7E7C0
000787C7C0
000F87C7C0
000F0FC7C0
001F0FC7C0
001E0FFFC0
003E0FFFC0
003C0FFFC0
007C0FFFC0
00F807FFC0
00F00007C0
01F00007C0
01E00007C0
03E00007C0
03C0000780
01C0000000
ENDCHAR
ENDFONT
